<svg width="50.000000" height="50.000000" viewBox="0 0 50 50" fill="none" xmlns="http://www.w3.org/2000/svg" xmlns:xlink="http://www.w3.org/1999/xlink">
	<desc>
			Created with Pixso.
	</desc>
	<defs/>
	<path id="Vector" d="M25 50C38.8066 50 50 38.8071 50 25C50 11.1929 38.8066 0 25 0C11.1934 0 0 11.1929 0 25C0 38.8071 11.1934 50 25 50ZM26.7676 11.5083C25.3262 11.5486 23.8057 11.8955 22.7305 12.9165C21.8438 13.7373 21.3965 14.9319 21.2959 16.126C21.2656 16.98 21.2695 17.8364 21.2744 18.6924C21.2773 19.3345 21.2803 19.9763 21.2695 20.6167C20.875 20.6196 20.4785 20.6187 20.083 20.6179C19.5547 20.6169 19.0264 20.6157 18.5 20.6233C18.5 21.1345 18.501 21.6465 18.502 22.1587C18.5029 23.1848 18.5049 24.2129 18.5 25.241C19.0264 25.2485 19.5547 25.2476 20.083 25.2463C20.4785 25.2456 20.875 25.2449 21.2695 25.2478C21.2783 27.2852 21.2764 29.3228 21.2744 31.3601C21.2725 33.907 21.2705 36.4536 21.2891 39.0005C22.3721 38.9927 23.4531 38.9939 24.5342 38.9949C25.3447 38.9958 26.1553 38.9966 26.9678 38.9937C26.9746 36.7014 26.9727 34.4111 26.9717 32.1206C26.9697 29.8303 26.9678 27.5398 26.9746 25.2478C27.5205 25.2449 28.0674 25.2456 28.6133 25.2463C29.3418 25.2476 30.0703 25.2485 30.7979 25.241C31.0254 23.7061 31.2188 22.158 31.3252 20.6033C30.6045 20.6001 29.8838 20.6001 29.1631 20.6001C28.4424 20.6001 27.7217 20.6001 27.001 20.5967C27.001 20.3279 27.001 20.0593 27.001 19.7908C26.999 18.9851 26.998 18.1794 27.0078 17.3738C27.1211 16.7529 27.7617 16.2791 28.3828 16.3193L31.332 16.3193C31.3389 14.7112 31.3389 13.1099 31.332 11.5017C30.9512 11.5017 30.5713 11.5012 30.1914 11.5007C29.0498 11.4995 27.9092 11.4983 26.7676 11.5083Z" fill="#FFFFFF" fill-opacity="1.000000" fill-rule="evenodd"/>
</svg>
