<svg width="50.000000" height="50.000000" viewBox="0 0 50 50" fill="none" xmlns="http://www.w3.org/2000/svg" xmlns:xlink="http://www.w3.org/1999/xlink">
	<desc>
			Created with Pixso.
	</desc>
	<defs>
		<clipPath id="clip21_1870">
			<rect id="Tilda_Icons_26sn_instagram 1" width="50.000000" height="50.000000" fill="white" fill-opacity="0"/>
		</clipPath>
	</defs>
	<rect id="Tilda_Icons_26sn_instagram 1" width="50.000000" height="50.000000" fill="#FFFFFF" fill-opacity="0"/>
	<g clip-path="url(#clip21_1870)">
		<path id="Vector" d="M25 50C38.8066 50 50 38.8071 50 25C50 11.1929 38.8066 0 25 0C11.1934 0 0 11.1929 0 25C0 38.8071 11.1934 50 25 50ZM12.5 19.6958C12.5 15.7278 15.7285 12.5 19.6963 12.5L30.3037 12.5C34.2725 12.5 37.5 15.7283 37.5 19.6958L37.5 30.4014C37.5 34.3689 34.2725 37.5974 30.3037 37.5974L19.6963 37.5974C15.7275 37.5974 12.5 34.3689 12.5 30.4014L12.5 19.6958ZM30.3037 35.2158C32.959 35.2158 35.1182 33.0562 35.1182 30.4014L35.1182 19.6958C35.1182 17.0413 32.959 14.8813 30.3037 14.8813L19.6963 14.8813C17.041 14.8813 14.8818 17.0413 14.8818 19.6958L14.8818 30.4014C14.8818 33.0562 17.041 35.2158 19.6963 35.2158L30.3037 35.2158ZM18.4941 25.0027C18.4941 21.4424 21.4219 18.5461 25.0195 18.5461C28.6182 18.5461 31.5459 21.4424 31.5459 25.0027C31.5459 28.5625 28.6182 31.4587 25.0195 31.4587C21.4219 31.4587 18.4941 28.5625 18.4941 25.0027ZM20.8711 25.0027C20.8711 27.2517 22.7324 29.0818 25.0195 29.0818C27.3076 29.0818 29.1689 27.252 29.1689 25.0027C29.1689 22.7534 27.3076 20.9233 25.0195 20.9233C22.7324 20.9233 20.8711 22.7534 20.8711 25.0027ZM31.6621 19.8179C32.5107 19.8179 33.1982 19.1304 33.1982 18.2822C33.1982 17.4343 32.5107 16.7468 31.6621 16.7468C30.8145 16.7468 30.127 17.4343 30.127 18.2822C30.127 19.1304 30.8145 19.8179 31.6621 19.8179Z" fill="#FFFFFF" fill-opacity="1.000000" fill-rule="evenodd"/>
	</g>
</svg>
