<svg width="50.000000" height="50.000000" viewBox="0 0 50 50" fill="none" xmlns="http://www.w3.org/2000/svg" xmlns:xlink="http://www.w3.org/1999/xlink">
	<desc>
			Created with Pixso.
	</desc>
	<defs/>
	<path id="Vector" d="M25 50C38.8066 50 50 38.8071 50 25C50 11.1929 38.8066 0 25 0C11.1934 0 0 11.1929 0 25C0 38.8071 11.1934 50 25 50ZM35.9883 15.9722C36.1816 13.7822 33.8682 14.6838 33.8682 14.6838C32.1611 15.3909 30.4004 16.1091 28.6201 16.8352C23.1006 19.0867 17.3984 21.4126 12.541 23.7019C9.90625 24.668 11.4482 25.6343 11.4482 25.6343L15.624 26.9226C17.5518 27.5022 18.5791 26.8582 18.5791 26.8582L27.5732 20.7388C30.7852 18.5488 30.0146 20.3523 29.2432 21.1252L22.498 27.5667C21.4697 28.4685 21.9844 29.2415 22.4336 29.6279C23.708 30.7524 26.8438 32.8098 28.2119 33.708C28.5684 33.9417 28.8047 34.0969 28.8574 34.1367C29.1787 34.3945 30.9131 35.554 32.0703 35.2961C33.2266 35.0386 33.3545 33.5571 33.3545 33.5571L34.8965 23.4441C35.1279 21.6885 35.3926 20.001 35.6045 18.6533C35.8047 17.3801 35.957 16.4102 35.9883 15.9722Z" fill="#FFFFFF" fill-opacity="1.000000" fill-rule="evenodd"/>
</svg>
