<svg width="32.000000" height="32.000000" viewBox="0 0 32 32" fill="none" xmlns="http://www.w3.org/2000/svg" xmlns:xlink="http://www.w3.org/1999/xlink">
	<desc>
			Created with Pixso.
	</desc>
	<defs/>
	<path id="Vector" d="M31.3262 28.093C31.7549 28.5222 31.9961 29.1042 31.9961 29.7112C31.9961 30.3184 31.7549 30.9004 31.3262 31.3296C30.8965 31.7588 30.3145 32 29.707 32C29.1006 32 28.5186 31.7588 28.0889 31.3296L16 19.2375L3.90723 31.3259C3.47852 31.7551 2.89551 31.9961 2.28906 31.9961C1.68164 31.9961 1.09961 31.7551 0.669922 31.3259C0.241211 30.8967 0 30.3145 0 29.7075C0 29.1006 0.241211 28.5183 0.669922 28.0891L12.7627 16.001L0.673828 3.90894C0.245117 3.47974 0.00390625 2.89771 0.00390625 2.29053C0.00390625 1.68359 0.245117 1.10156 0.673828 0.672363C1.10352 0.24292 1.68555 0.00195312 2.29297 0.00195312C2.89941 0.00195312 3.48145 0.24292 3.91113 0.672363L16 12.7642L28.0928 0.67041C28.5215 0.241211 29.1045 0 29.7109 0C30.3184 0 30.9004 0.241211 31.3301 0.67041C31.7588 1.09961 32 1.68164 32 2.28882C32 2.89575 31.7588 3.47778 31.3301 3.90698L19.2373 16.001L31.3262 28.093Z" fill="#858585" fill-opacity="1.000000" fill-rule="nonzero"/>
</svg>
